<?xml version="1.0" encoding="UTF-8" standalone="no"?>
<!DOCTYPE svg PUBLIC "-//W3C//DTD SVG 1.1//EN" "http://www.w3.org/Graphics/SVG/1.1/DTD/svg11.dtd">
<svg width="100%" height="100%" viewBox="0 0 155 155" version="1.1" xmlns="http://www.w3.org/2000/svg" xmlns:xlink="http://www.w3.org/1999/xlink" xml:space="preserve" xmlns:serif="http://www.serif.com/" style="fill-rule:evenodd;clip-rule:evenodd;stroke-linejoin:round;stroke-miterlimit:2;">
    <g transform="matrix(1,0,0,1,-233.667,-56.4638)">
        <g transform="matrix(0,-1,-1,0,311.005,56.4643)">
            <g id="background">
                <path d="M-77.337,-77.337C-120.049,-77.337 -154.676,-42.712 -154.676,-0C-154.676,42.713 -120.049,77.337 -77.337,77.337C-34.624,77.337 0.001,42.713 0.001,-0C0.001,-42.712 -34.624,-77.337 -77.337,-77.337" style="fill:rgb(240,89,43);fill-rule:nonzero;"/>
            </g>
        </g>
        <g id="object">
            <g transform="matrix(1,0,0,1,284.521,92.9238)">
                <path d="M0,18.982C-4.918,15.243 -0.668,3.367 0.828,4.615C1.852,5.468 4.454,10.066 6.103,13.095C3.845,14.813 1.795,16.789 0,18.982M11.632,9.308C10.104,6.599 5.66,-0.592 0.27,-2.886C-6.284,-5.676 -11.377,17.64 -3.522,24.154C-3.614,24.319 -3.695,24.493 -3.786,24.658C3.077,21.844 8.372,15.937 11.632,9.308" style="fill:rgb(138,96,60);fill-rule:nonzero;"/>
            </g>
            <g transform="matrix(1,0,0,1,284.166,94.7167)">
                <path d="M0,18.547C2.131,15.942 4.565,13.594 7.248,11.554C5.289,7.956 2.2,2.496 0.982,1.482C-0.796,0 -5.843,14.105 0,18.547" style="fill:rgb(59,62,67);fill-rule:nonzero;"/>
            </g>
            <g transform="matrix(1,0,0,1,335.341,98.8106)">
                <path d="M0,7.208C1.648,4.179 4.251,-0.418 5.274,-1.271C6.771,-2.52 11.021,9.356 6.103,13.095C4.308,10.902 2.257,8.926 0,7.208M9.888,18.771C9.798,18.606 9.717,18.433 9.624,18.268C17.479,11.753 12.388,-11.563 5.833,-8.773C0.443,-6.479 -4.001,0.712 -5.529,3.421C-2.271,10.05 3.025,15.958 9.888,18.771" style="fill:rgb(138,96,60);fill-rule:nonzero;"/>
            </g>
            <g transform="matrix(1,0,0,1,341.799,94.7167)">
                <path d="M0,18.547C-2.131,15.942 -4.566,13.594 -7.247,11.554C-5.289,7.956 -2.199,2.496 -0.982,1.482C0.795,0 5.842,14.105 0,18.547" style="fill:rgb(59,62,67);fill-rule:nonzero;"/>
            </g>
            <g transform="matrix(1,0,0,1,311.342,96.0025)">
                <path d="M0,-0.002L0,0C0.013,0 0.026,-0.002 0.038,-0.002L0,-0.002Z" style="fill:rgb(233,99,50);fill-rule:nonzero;"/>
            </g>
            <g transform="matrix(1,0,0,1,311.418,96.0025)">
                <path d="M0,-0.002L-0.038,-0.002C-0.026,-0.002 -0.014,0 0,0L0,-0.002Z" style="fill:rgb(168,71,32);fill-rule:nonzero;"/>
            </g>
            <g transform="matrix(1,0,0,1,350.772,127.319)">
                <path d="M0,7.947C0,-13.713 -17.54,-31.276 -39.19,-31.315L-39.19,-31.318C-39.203,-31.318 -39.217,-31.316 -39.23,-31.316C-39.242,-31.316 -39.252,-31.318 -39.266,-31.318L-39.266,-31.315L-39.376,-31.315L-39.376,-31.318C-39.389,-31.318 -39.401,-31.316 -39.413,-31.316C-39.427,-31.316 -39.438,-31.318 -39.451,-31.318L-39.451,-31.315C-61.102,-31.276 -78.642,-13.713 -78.642,7.947C-78.642,8.458 -88.076,19.1 -81.629,31.811C-78.066,38.841 -59.019,38.195 -40.278,38.401C-20.409,38.619 -0.791,39.265 2.988,31.811C9.434,19.1 0,8.458 0,7.947" style="fill:rgb(138,96,60);fill-rule:nonzero;"/>
            </g>
            <g transform="matrix(0,-1,-1,0,292.133,126.021)">
                <path d="M-25.394,-25.392C-39.417,-25.392 -50.785,-14.022 -50.785,0.002C-50.785,14.024 -39.417,25.394 -25.394,25.394C-11.37,25.394 -0.001,14.024 -0.001,0.002C-0.001,-14.022 -11.37,-25.392 -25.394,-25.392" style="fill:rgb(138,96,60);fill-rule:nonzero;"/>
            </g>
            <g transform="matrix(0,-1,-1,0,332.034,127.011)">
                <path d="M-25.393,-25.392C-39.416,-25.392 -50.785,-14.024 -50.785,0.001C-50.785,14.024 -39.416,25.393 -25.393,25.393C-11.369,25.393 0,14.024 0,0.001C0,-14.024 -11.369,-25.392 -25.393,-25.392" style="fill:rgb(138,96,60);fill-rule:nonzero;"/>
            </g>
            <g transform="matrix(1,0,0,1,291.497,137.306)">
                <path d="M0,14.787C-0.172,14.787 -0.344,14.723 -0.477,14.594C-0.569,14.504 -10.072,5.512 -37.002,1.397C-37.374,1.341 -37.628,0.993 -37.572,0.621C-37.515,0.25 -37.159,0 -36.796,0.052C-9.363,4.242 0.087,13.24 0.476,13.62C0.743,13.884 0.748,14.313 0.485,14.582C0.353,14.718 0.176,14.787 0,14.787" style="fill:rgb(61,52,47);fill-rule:nonzero;"/>
            </g>
            <g transform="matrix(1,0,0,1,289.911,147.765)">
                <path d="M0,7.862C-0.115,7.862 -0.23,7.834 -0.337,7.774C-0.448,7.71 -11.922,1.409 -39.011,4.231C-39.374,4.267 -39.72,4 -39.759,3.625C-39.798,3.252 -39.524,2.916 -39.151,2.878C-11.546,0 -0.136,6.321 0.339,6.591C0.664,6.778 0.776,7.194 0.591,7.519C0.467,7.739 0.235,7.862 0,7.862" style="fill:rgb(61,52,47);fill-rule:nonzero;"/>
            </g>
            <g transform="matrix(1,0,0,1,250.539,154.908)">
                <path d="M0,10.317C-0.283,10.317 -0.549,10.139 -0.645,9.857C-0.766,9.502 -0.576,9.114 -0.222,8.992C26.03,0 38.572,3.595 39.095,3.754C39.453,3.862 39.658,4.241 39.549,4.601C39.441,4.961 39.068,5.165 38.702,5.057C38.578,5.019 25.989,1.454 0.221,10.28C0.146,10.305 0.072,10.317 0,10.317" style="fill:rgb(61,52,47);fill-rule:nonzero;"/>
            </g>
            <g transform="matrix(0,-1,-1,0,311.007,138.573)">
                <path d="M-7.289,-8.616C-10.34,-8.616 -14.138,-5.054 -14.138,-0.662C-14.138,3.73 -10.34,7.289 -7.289,7.289C-4.239,7.289 -1.767,3.73 -1.767,-0.662C-1.767,-5.054 -4.239,-8.616 -7.289,-8.616" style="fill:rgb(59,62,67);fill-rule:nonzero;"/>
            </g>
            <g transform="matrix(1,0,0,1,303.379,150.05)">
                <path d="M0,11.993C-2.181,11.993 -4.597,10.917 -7.213,8.777C-7.562,8.493 -7.614,7.978 -7.327,7.63C-7.043,7.282 -6.526,7.23 -6.18,7.515C-3.121,10.017 -0.487,10.875 1.649,10.063C5.906,8.443 7.169,0.824 7.18,0.748C7.249,0.303 7.666,0 8.114,0.071C8.559,0.143 8.862,0.561 8.792,1.005C8.735,1.357 7.359,9.635 2.23,11.586C1.516,11.857 0.773,11.993 0,11.993" style="fill:rgb(59,62,67);fill-rule:nonzero;"/>
            </g>
            <g transform="matrix(1,0,0,1,318.52,150.07)">
                <path d="M0,12.688C-0.672,12.688 -1.318,12.565 -1.936,12.318C-6.814,10.366 -7.728,1.318 -7.766,0.934C-7.809,0.485 -7.479,0.087 -7.031,0.044C-6.583,0 -6.184,0.331 -6.14,0.78C-5.916,3.122 -4.613,9.491 -1.327,10.803C0.474,11.524 2.769,10.689 5.496,8.325C5.835,8.029 6.351,8.067 6.647,8.407C6.94,8.748 6.905,9.263 6.564,9.559C4.161,11.64 1.963,12.688 0,12.688" style="fill:rgb(59,62,67);fill-rule:nonzero;"/>
            </g>
            <g transform="matrix(0.246465,-0.969152,-0.969152,-0.246465,315.792,141.787)">
                <path d="M-2.087,-1.622C-2.842,-1.623 -3.453,-0.658 -3.454,0.531C-3.454,1.72 -2.841,2.684 -2.087,2.687C-1.332,2.686 -0.72,1.719 -0.719,0.531C-0.72,-0.657 -1.332,-1.622 -2.087,-1.622" style="fill:white;fill-rule:nonzero;"/>
            </g>
            <g transform="matrix(1,0,0,1,330.513,138.665)">
                <path d="M0,14.789C-0.177,14.789 -0.354,14.721 -0.486,14.584C-0.748,14.315 -0.745,13.886 -0.477,13.623C-0.087,13.242 9.364,4.245 36.795,0.054C37.167,0 37.514,0.252 37.571,0.624C37.628,0.995 37.373,1.343 37.001,1.4C10.071,5.514 0.569,14.506 0.476,14.597C0.344,14.725 0.172,14.789 0,14.789" style="fill:rgb(61,52,47);fill-rule:nonzero;"/>
            </g>
            <g transform="matrix(1,0,0,1,332.098,149.127)">
                <path d="M0,7.862C-0.235,7.862 -0.466,7.739 -0.591,7.519C-0.777,7.194 -0.665,6.778 -0.338,6.591C0.134,6.321 11.553,0 39.152,2.878C39.525,2.916 39.798,3.251 39.758,3.624C39.721,3.999 39.385,4.267 39.012,4.23C11.842,1.404 0.449,7.708 0.337,7.772C0.231,7.834 0.114,7.862 0,7.862" style="fill:rgb(61,52,47);fill-rule:nonzero;"/>
            </g>
            <g transform="matrix(1,0,0,1,371.472,156.27)">
                <path d="M0,10.316C-0.075,10.316 -0.148,10.304 -0.222,10.28C-25.987,1.454 -38.579,5.02 -38.705,5.057C-39.069,5.166 -39.443,4.96 -39.551,4.6C-39.659,4.241 -39.456,3.861 -39.097,3.753C-38.574,3.596 -26.034,0 0.221,8.992C0.574,9.113 0.765,9.501 0.643,9.857C0.546,10.139 0.282,10.316 0,10.316" style="fill:rgb(61,52,47);fill-rule:nonzero;"/>
            </g>
            <g transform="matrix(-0.857137,-0.515089,-0.515089,0.857137,284.053,140.349)">
                <path d="M-4.655,-29.291C0.441,-27.949 6.899,-24.239 5.495,-13.71C4.09,-3.183 -0.566,3.553 -4.655,3.181C-8.745,2.809 -21.128,-11.782 -18.89,-18.481C-16.652,-25.179 -10.836,-30.92 -4.655,-29.291" style="fill:rgb(194,152,107);fill-rule:nonzero;"/>
            </g>
            <g transform="matrix(0.340883,0.940106,0.940106,-0.340883,321.677,120.282)">
                <path d="M11.026,-10.531C18.031,-11.44 29.973,3.516 29.551,7.599C29.132,11.685 21.627,14.96 11.026,14.316C0.423,13.674 -1.977,6.621 -2.316,1.364C-2.727,-5.014 4.023,-9.62 11.026,-10.531" style="fill:rgb(194,152,107);fill-rule:nonzero;"/>
            </g>
            <g transform="matrix(0,1,1,0,327.293,123.012)">
                <path d="M6.023,-6.02C9.346,-6.02 12.042,-3.324 12.042,0.001C12.042,3.326 9.346,6.023 6.023,6.023C2.697,6.023 0.001,3.326 0.001,0.001C0.001,-3.324 2.697,-6.02 6.023,-6.02" style="fill:rgb(59,62,67);fill-rule:nonzero;"/>
            </g>
            <g transform="matrix(0,1,1,0,329.099,121.142)">
                <path d="M3.163,-3.161C4.91,-3.161 6.323,-1.744 6.323,0.001C6.323,1.747 4.91,3.163 3.163,3.163C1.416,3.163 0.001,1.747 0.001,0.001C0.001,-1.744 1.416,-3.161 3.163,-3.161" style="fill:white;fill-rule:nonzero;"/>
            </g>
            <g transform="matrix(0,-1,-1,0,297.451,123.015)">
                <path d="M-6.02,-6.017C-9.343,-6.017 -12.039,-3.326 -12.039,0C-12.039,3.325 -9.343,6.02 -6.02,6.02C-2.694,6.02 0.002,3.325 0.002,0C0.002,-3.326 -2.694,-6.017 -6.02,-6.017" style="fill:rgb(59,62,67);fill-rule:nonzero;"/>
            </g>
            <g transform="matrix(0,-1,-1,0,295.646,121.144)">
                <path d="M-3.161,-3.159C-4.908,-3.159 -6.321,-1.744 -6.321,0.001C-6.321,1.747 -4.908,3.161 -3.161,3.161C-1.414,3.161 0.001,1.747 0.001,0.001C0.001,-1.744 -1.414,-3.159 -3.161,-3.159" style="fill:white;fill-rule:nonzero;"/>
            </g>
        </g>
    </g>
</svg>
