<?xml version="1.0" encoding="UTF-8" standalone="no"?>
<!DOCTYPE svg PUBLIC "-//W3C//DTD SVG 1.1//EN" "http://www.w3.org/Graphics/SVG/1.1/DTD/svg11.dtd">
<svg width="100%" height="100%" viewBox="0 0 155 160" version="1.1" xmlns="http://www.w3.org/2000/svg" xmlns:xlink="http://www.w3.org/1999/xlink" xml:space="preserve" xmlns:serif="http://www.serif.com/" style="fill-rule:evenodd;clip-rule:evenodd;stroke-linecap:round;stroke-miterlimit:10;">
    <g transform="matrix(1,0,0,1,-591.823,-56.4638)">
        <g transform="matrix(0,-1,-1,0,669.161,56.4638)">
            <g id="background">
                <path d="M-77.338,-77.338C-120.05,-77.338 -154.676,-42.713 -154.676,-0.001C-154.676,42.713 -120.05,77.338 -77.338,77.338C-34.625,77.338 0,42.713 0,-0.001C0,-42.713 -34.625,-77.338 -77.338,-77.338" style="fill:rgb(98,165,162);fill-rule:nonzero;"/>
            </g>
        </g>
        <g id="object">
            <g transform="matrix(0,-1,-1,0,671.3,77.1589)">
                <path d="M-58.782,-54.504C-90.064,-54.504 -111.148,-27.778 -111.148,1.908C-111.148,31.595 -90.064,58.782 -58.782,58.782C-27.497,58.782 -2.138,33.424 -2.138,2.14C-2.138,-29.143 -27.497,-54.504 -58.782,-54.504" style="fill:rgb(234,105,43);fill-rule:nonzero;"/>
            </g>
            <g transform="matrix(0,-1,-1,0,646.681,95.4508)">
                <path d="M-16.015,-16.015C-24.859,-16.015 -32.029,-8.844 -32.029,-0C-32.029,8.845 -24.859,16.015 -16.015,16.015C-7.169,16.015 0,8.845 0,-0C0,-8.844 -7.169,-16.015 -16.015,-16.015" style="fill:rgb(227,147,53);fill-rule:nonzero;"/>
            </g>
            <g transform="matrix(0,-1,-1,0,646.682,101.855)">
                <path d="M-9.611,-9.609C-14.918,-9.609 -19.219,-5.306 -19.219,-0C-19.219,5.308 -14.918,9.611 -9.611,9.611C-4.303,9.611 -0.002,5.308 -0.002,-0C-0.002,-5.306 -4.303,-9.609 -9.611,-9.609" style="fill:rgb(138,96,60);fill-rule:nonzero;"/>
            </g>
            <g transform="matrix(0,1,1,0,690.413,95.4508)">
                <path d="M16.015,-16.015C24.859,-16.015 32.029,-8.843 32.029,-0C32.029,8.845 24.859,16.015 16.015,16.015C7.169,16.015 -0,8.845 -0,-0C-0,-8.843 7.169,-16.015 16.015,-16.015" style="fill:rgb(227,147,53);fill-rule:nonzero;"/>
            </g>
            <g transform="matrix(0,1,1,0,690.414,101.855)">
                <path d="M9.61,-9.609C14.917,-9.609 19.218,-5.306 19.218,-0.002C19.218,5.307 14.917,9.61 9.61,9.61C4.302,9.61 0.001,5.307 0.001,-0.002C0.001,-5.306 4.302,-9.609 9.61,-9.609" style="fill:rgb(138,96,60);fill-rule:nonzero;"/>
            </g>
            <g transform="matrix(1,0,0,1,701.281,144.74)">
                <path d="M0,-8.032C-4.735,-31.917 -11.941,-38.361 -32.461,-38.361C-32.553,-38.361 -32.644,-38.358 -32.733,-38.358C-32.824,-38.358 -32.914,-38.361 -33.005,-38.361C-53.524,-38.361 -60.732,-31.917 -65.467,-8.032C-72.567,1.445 -71.518,30.329 -34.365,30.329C-33.813,30.329 -33.272,30.324 -32.733,30.316C-32.196,30.324 -31.654,30.329 -31.102,30.329C6.052,30.329 7.101,1.445 0,-8.032" style="fill:rgb(227,147,53);fill-rule:nonzero;"/>
            </g>
            <g transform="matrix(0,-1,-1,0,671.829,139.124)">
                <clipPath id="_clip1">
                    <path d="M34.825,3.281C34.825,3.372 34.828,3.462 34.828,3.553C34.828,24.072 28.189,31.28 3.579,36.015C-6.185,43.115 -35.946,42.066 -35.946,4.913C-35.946,4.361 -35.941,3.82 -35.932,3.281C-35.941,2.744 -35.946,2.202 -35.946,1.649C-35.946,-35.504 -6.185,-36.553 3.579,-29.452C28.189,-24.717 34.828,-17.511 34.828,3.008C34.828,3.1 34.825,3.191 34.825,3.281Z" clip-rule="nonzero"/>
                </clipPath>
                <g clip-path="url(#_clip1)">
                    <path d="M-44.335,-38.475C-62.024,-38.475 -76.364,-21.231 -76.364,2.929C-76.364,27.09 -62.024,44.335 -44.335,44.335C-26.646,44.335 -6.446,27.09 -6.446,2.929C-6.446,-21.231 -26.646,-38.475 -44.335,-38.475" style="fill:rgb(243,219,189);fill-rule:nonzero;"/>
                </g>
            </g>
            <g transform="matrix(0,-1,-1,0,651.387,127.086)">
                <path d="M-6.308,-6.305C-9.791,-6.305 -12.615,-3.482 -12.615,0.001C-12.615,3.484 -9.791,6.308 -6.308,6.308C-2.824,6.308 0.001,3.484 0.001,0.001C0.001,-3.482 -2.824,-6.305 -6.308,-6.305" style="fill:rgb(138,96,60);fill-rule:nonzero;"/>
            </g>
            <g transform="matrix(0,-1,-1,0,651.387,130.254)">
                <path d="M-3.194,-3.192C-4.957,-3.192 -6.385,-1.762 -6.385,0C-6.385,1.763 -4.957,3.194 -3.194,3.194C-1.431,3.194 -0.001,1.763 -0.001,0C-0.001,-1.762 -1.431,-3.192 -3.194,-3.192" style="fill:rgb(59,62,67);fill-rule:nonzero;"/>
            </g>
            <g transform="matrix(0,-1,-1,0,650.428,129.263)">
                <path d="M-1.676,-1.675C-2.602,-1.675 -3.353,-0.926 -3.353,0.001C-3.353,0.926 -2.602,1.676 -1.676,1.676C-0.749,1.676 0.001,0.926 0.001,0.001C0.001,-0.926 -0.749,-1.675 -1.676,-1.675" style="fill:white;fill-rule:nonzero;"/>
            </g>
            <g transform="matrix(0,-1,-1,0,669.32,140.499)">
                <path d="M-7.568,-7.665C-10.49,-7.665 -12.955,-4.255 -12.955,-0.049C-12.955,4.159 -10.49,7.568 -7.568,7.568C-4.647,7.568 -2.278,4.159 -2.278,-0.049C-2.278,-4.255 -4.647,-7.665 -7.568,-7.665" style="fill:rgb(59,62,67);fill-rule:nonzero;"/>
            </g>
            <g transform="matrix(1,0,0,1,661.428,152.076)">
                <path d="M0,11.489C-2.09,11.489 -4.404,10.459 -6.908,8.409C-7.242,8.136 -7.292,7.644 -7.019,7.31C-6.746,6.976 -6.254,6.927 -5.919,7.2C-2.99,9.597 -0.466,10.418 1.581,9.639C5.657,8.088 6.864,0.793 6.875,0.719C6.943,0.293 7.345,0 7.771,0.071C8.197,0.138 8.487,0.538 8.419,0.965C8.364,1.301 7.05,9.231 2.136,11.1C1.452,11.36 0.739,11.489 0,11.489" style="fill:rgb(59,62,67);fill-rule:nonzero;"/>
            </g>
            <g transform="matrix(1,0,0,1,675.931,152.097)">
                <path d="M0,12.153C-0.646,12.153 -1.266,12.034 -1.854,11.798C-6.526,9.927 -7.402,1.262 -7.438,0.894C-7.479,0.465 -7.165,0.083 -6.734,0.042C-6.306,0 -5.922,0.317 -5.883,0.746C-5.668,2.99 -4.419,9.09 -1.275,10.348C0.452,11.038 2.65,10.239 5.263,7.975C5.589,7.691 6.082,7.726 6.364,8.052C6.647,8.378 6.611,8.872 6.287,9.154C3.985,11.149 1.881,12.153 0,12.153" style="fill:rgb(59,62,67);fill-rule:nonzero;"/>
            </g>
            <g transform="matrix(0.246241,-0.969209,-0.969209,-0.246241,673.316,144.163)">
                <path d="M-1.999,-1.554C-2.723,-1.552 -3.308,-0.63 -3.307,0.508C-3.308,1.649 -2.722,2.571 -1.999,2.572C-1.275,2.57 -0.689,1.648 -0.691,0.509C-0.691,-0.631 -1.276,-1.555 -1.999,-1.554" style="fill:white;fill-rule:nonzero;"/>
            </g>
            <g transform="matrix(0,1,1,0,685.707,127.085)">
                <path d="M6.309,-6.306C9.792,-6.306 12.615,-3.483 12.615,0.001C12.615,3.484 9.792,6.309 6.309,6.309C2.825,6.309 0,3.484 0,0.001C0,-3.483 2.825,-6.306 6.309,-6.306" style="fill:rgb(138,96,60);fill-rule:nonzero;"/>
            </g>
            <g transform="matrix(0,1,1,0,685.708,130.254)">
                <path d="M3.194,-3.191C4.957,-3.191 6.385,-1.761 6.385,-0C6.385,1.764 4.957,3.194 3.194,3.194C1.431,3.194 0.001,1.764 0.001,-0C0.001,-1.761 1.431,-3.191 3.194,-3.191" style="fill:rgb(59,62,67);fill-rule:nonzero;"/>
            </g>
            <g transform="matrix(0,1,1,0,686.667,129.262)">
                <path d="M1.677,-1.676C2.604,-1.676 3.354,-0.926 3.354,0.001C3.354,0.925 2.604,1.677 1.677,1.677C0.75,1.677 0,0.925 0,0.001C0,-0.926 0.75,-1.676 1.677,-1.676" style="fill:white;fill-rule:nonzero;"/>
            </g>
            <g transform="matrix(-0.983792,-0.179312,-0.179312,0.983792,622.463,141.686)">
                <path d="M-32.327,2.922C-32.327,2.922 -22.953,-0.857 0.264,2.922" style="fill:none;fill-rule:nonzero;stroke:rgb(61,52,47);stroke-width:2px;"/>
            </g>
            <g transform="matrix(-0.999587,0.0287359,0.0287359,0.999587,619.405,150.905)">
                <path d="M-33.178,2.94C-33.178,2.94 -23.222,-0.766 0.056,2.94" style="fill:none;fill-rule:nonzero;stroke:rgb(61,52,47);stroke-width:2px;"/>
            </g>
            <g transform="matrix(-0.97788,0.209169,0.209169,0.97788,621.046,164.687)">
                <path d="M-32.658,-2.013C-32.658,-2.013 -22.35,-5.724 0.521,-2.013" style="fill:none;fill-rule:nonzero;stroke:rgb(61,52,47);stroke-width:2px;"/>
            </g>
            <g transform="matrix(0.983781,-0.179371,-0.179371,-0.983781,684.928,153.967)">
                <path d="M-0.264,2.923C-0.264,2.923 9.111,6.702 32.327,2.923" style="fill:none;fill-rule:nonzero;stroke:rgb(61,52,47);stroke-width:2px;"/>
            </g>
            <g transform="matrix(0.999586,0.0287659,0.0287659,-0.999586,685.205,153.192)">
                <path d="M0.042,-0.477C0.042,-0.477 9.998,3.229 33.276,-0.477" style="fill:none;fill-rule:nonzero;stroke:rgb(61,52,47);stroke-width:2px;"/>
            </g>
            <g transform="matrix(0.977878,0.209175,0.209175,-0.977878,686.257,153.337)">
                <path d="M-0.213,-3.454C-0.213,-3.454 10.094,0.258 32.965,-3.454" style="fill:none;fill-rule:nonzero;stroke:rgb(61,52,47);stroke-width:2px;"/>
            </g>
        </g>
    </g>
</svg>
