<?xml version="1.0" encoding="UTF-8" standalone="no"?>
<!DOCTYPE svg PUBLIC "-//W3C//DTD SVG 1.1//EN" "http://www.w3.org/Graphics/SVG/1.1/DTD/svg11.dtd">
<svg width="100%" height="100%" viewBox="0 0 155 155" version="1.1" xmlns="http://www.w3.org/2000/svg" xmlns:xlink="http://www.w3.org/1999/xlink" xml:space="preserve" xmlns:serif="http://www.serif.com/" style="fill-rule:evenodd;clip-rule:evenodd;stroke-linejoin:round;stroke-miterlimit:2;">
    <g transform="matrix(1,0,0,1,-412.221,-56.4638)">
        <g transform="matrix(0,-1,-1,0,489.559,56.4638)">
            <g id="background">
                <path d="M-77.338,-77.338C-120.05,-77.338 -154.676,-42.713 -154.676,0.001C-154.676,42.713 -120.05,77.338 -77.338,77.338C-34.625,77.338 0,42.713 0,0.001C0,-42.713 -34.625,-77.338 -77.338,-77.338" style="fill:rgb(216,212,35);fill-rule:nonzero;"/>
            </g>
        </g>
        <g id="object">
            <g transform="matrix(0.00400454,-0.999992,-0.999992,-0.00400454,484.934,91.1368)">
                <path d="M-40.114,-55.419C-76.702,-75.395 -88.658,-47.3 -88.841,-1.637C-89.049,50.374 -74.371,60.029 -40.114,46.965C-10.717,35.754 -7.032,15.685 -6.96,-2.339C-6.887,-20.361 -13.822,-41.064 -40.114,-55.419" style="fill:rgb(224,220,211);fill-rule:nonzero;"/>
            </g>
            <g transform="matrix(0.605481,-0.79586,-0.79586,-0.605481,543.307,136.116)">
                <path d="M-21.216,-7.568C-30.265,-8.548 -39.492,0.083 -49.607,10.828C-50.589,19.875 -29.458,37.903 -21.216,41.76C-12.386,45.887 -0.864,42.79 -1.145,26.779C-1.302,17.68 -12.169,-6.587 -21.216,-7.568" style="fill:rgb(186,183,176);fill-rule:nonzero;"/>
            </g>
            <g transform="matrix(0.619907,0.784676,0.784676,-0.619907,434.19,135.953)">
                <path d="M23.124,-7.699C32.151,-8.846 45.707,4.687 52.339,11.422C53.488,20.452 34.163,39.293 23.124,44.841C14.993,48.929 -0.92,44.313 1.984,26.598C4.887,8.881 14.095,-6.555 23.124,-7.699" style="fill:rgb(186,183,176);fill-rule:nonzero;"/>
            </g>
            <g transform="matrix(0,1,1,0,513.887,127.172)">
                <path d="M8.316,-8.316C12.91,-8.316 16.631,-4.591 16.631,0C16.631,4.592 12.91,8.316 8.316,8.316C3.724,8.316 0.001,4.592 0.001,0C0.001,-4.591 3.724,-8.316 8.316,-8.316" style="fill:white;fill-rule:nonzero;"/>
            </g>
            <g transform="matrix(0,1,1,0,513.887,131.349)">
                <path d="M4.209,-4.209C6.534,-4.209 8.416,-2.326 8.416,0.001C8.416,2.325 6.534,4.209 4.209,4.209C1.884,4.209 0,2.325 0,0.001C0,-2.326 1.884,-4.209 4.209,-4.209" style="fill:rgb(59,62,67);fill-rule:nonzero;"/>
            </g>
            <g transform="matrix(0,1,1,0,515.15,130.041)">
                <path d="M2.211,-2.211C3.431,-2.211 4.421,-1.223 4.421,-0.001C4.421,1.22 3.431,2.211 2.211,2.211C0.99,2.211 0.001,1.22 0.001,-0.001C0.001,-1.223 0.99,-2.211 2.211,-2.211" style="fill:white;fill-rule:nonzero;"/>
            </g>
            <g transform="matrix(0,-1,-1,0,465.122,125.067)">
                <path d="M-8.316,-8.316C-12.909,-8.316 -16.632,-4.593 -16.632,-0.001C-16.632,4.591 -12.909,8.316 -8.316,8.316C-3.725,8.316 0,4.591 0,-0.001C0,-4.593 -3.725,-8.316 -8.316,-8.316" style="fill:white;fill-rule:nonzero;"/>
            </g>
            <g transform="matrix(0,-1,-1,0,465.123,129.244)">
                <path d="M-4.21,-4.208C-6.534,-4.208 -8.418,-2.324 -8.418,0.001C-8.418,2.324 -6.534,4.21 -4.21,4.21C-1.884,4.21 -0,2.324 -0,0.001C-0,-2.324 -1.884,-4.208 -4.21,-4.208" style="fill:rgb(59,62,67);fill-rule:nonzero;"/>
            </g>
            <g transform="matrix(0,-1,-1,0,463.862,127.936)">
                <path d="M-2.212,-2.21C-3.433,-2.21 -4.421,-1.22 -4.421,0.002C-4.421,1.222 -3.433,2.212 -2.212,2.212C-0.99,2.212 -0.001,1.222 -0.001,0.002C-0.001,-1.22 -0.99,-2.21 -2.212,-2.21" style="fill:white;fill-rule:nonzero;"/>
            </g>
            <g transform="matrix(0,-1,-1,0,489.121,132.723)">
                <path d="M-27.436,-27.433C-35.967,-27.433 -42.883,-11.429 -42.883,2.399C-42.883,16.227 -35.967,27.436 -27.436,27.436C-18.903,27.436 -11.986,16.227 -11.986,2.399C-11.986,-11.429 -18.903,-27.433 -27.436,-27.433" style="fill:white;fill-rule:nonzero;"/>
            </g>
            <g transform="matrix(0,-1,-1,0,488.253,149.608)">
                <path d="M-9.522,-11.253C-13.508,-11.253 -18.468,-6.602 -18.468,-0.864C-18.468,4.873 -13.508,9.522 -9.522,9.522C-5.537,9.522 -2.308,4.873 -2.308,-0.864C-2.308,-6.602 -5.537,-11.253 -9.522,-11.253" style="fill:rgb(59,62,67);fill-rule:nonzero;"/>
            </g>
            <g transform="matrix(0.246297,-0.969194,-0.969194,-0.246297,494.501,153.806)">
                <path d="M-2.726,-2.12C-3.713,-2.121 -4.512,-0.861 -4.512,0.694C-4.511,2.247 -3.712,3.505 -2.726,3.507C-1.739,3.506 -0.94,2.246 -0.94,0.692C-0.94,-0.861 -1.739,-2.12 -2.726,-2.12" style="fill:white;fill-rule:nonzero;"/>
            </g>
            <g transform="matrix(1,0,0,1,448.093,112.31)">
                <path d="M0,-24.16C-7.553,-20.514 0.275,3.646 0.275,3.646L25.86,-11.444C25.86,-11.444 7.555,-27.806 0,-24.16" style="fill:rgb(224,220,211);fill-rule:nonzero;"/>
            </g>
            <g transform="matrix(1,0,0,1,451.175,107.921)">
                <path d="M0,-16.232C-5.074,-13.782 0.187,2.451 0.187,2.451L17.378,-7.687C17.378,-7.687 5.076,-18.683 0,-16.232" style="fill:rgb(186,183,176);fill-rule:nonzero;"/>
            </g>
            <g transform="matrix(1,0,0,1,530.917,112.31)">
                <path d="M0,-24.16C7.552,-20.514 -0.276,3.646 -0.276,3.646L-25.859,-11.444C-25.859,-11.444 -7.553,-27.806 0,-24.16" style="fill:rgb(224,220,211);fill-rule:nonzero;"/>
            </g>
            <g transform="matrix(1,0,0,1,527.833,107.921)">
                <path d="M0,-16.232C5.076,-13.782 -0.184,2.451 -0.184,2.451L-17.375,-7.687C-17.375,-7.687 -5.073,-18.683 0,-16.232" style="fill:rgb(186,183,176);fill-rule:nonzero;"/>
            </g>
        </g>
    </g>
</svg>
